<?xml version="1.0" standalone="no"?>
<!DOCTYPE svg PUBLIC "-//W3C//DTD SVG 20010904//EN"
 "http://www.w3.org/TR/2001/REC-SVG-20010904/DTD/svg10.dtd">
<svg version="1.0" xmlns="http://www.w3.org/2000/svg"
 width="300.000000pt" height="199.000000pt" viewBox="0 0 300.000000 199.000000"
 preserveAspectRatio="xMidYMid meet">
<metadata>
Created by potrace 1.10, written by Peter Selinger 2001-2011
</metadata>
<g transform="translate(0.000000,199.000000) scale(0.100000,-0.100000)"
fill="#ffffff" stroke="none">
<path d="M1240 1936 c-155 -33 -292 -98 -413 -196 -381 -306 -466 -853 -196
-1264 139 -212 369 -364 624 -413 111 -21 322 -13 424 17 366 106 634 408 692
782 14 90 6 281 -16 363 -57 215 -179 403 -347 532 -84 64 -209 128 -313 158
-76 23 -114 28 -240 31 -102 2 -171 -1 -215 -10z m90 -16 c0 -5 -5 -10 -11
-10 -5 0 -7 5 -4 10 3 6 8 10 11 10 2 0 4 -4 4 -10z m230 0 c10 -7 -13 -8 -75
-4 -49 4 -92 8 -94 10 -10 9 156 3 169 -6z m-275 -10 c-11 -5 -29 -9 -40 -9
-17 -1 -17 1 -5 9 8 5 26 9 40 9 23 0 23 -1 5 -9z m320 -8 c-3 -3 -11 0 -18 7
-9 10 -8 11 6 5 10 -3 15 -9 12 -12z m-390 -2 c-3 -5 -14 -10 -23 -10 -15 0
-15 2 -2 10 20 13 33 13 25 0z m358 -15 c355 -62 635 -319 724 -664 61 -241
12 -524 -127 -726 -341 -496 -1065 -524 -1443 -55 -69 86 -139 224 -168 331
-26 97 -35 267 -20 365 80 495 548 834 1034 749z m138 0 c19 -8 29 -14 23 -15
-7 0 -27 7 -45 15 -19 8 -29 14 -23 15 7 0 27 -7 45 -15z m-571 -5 c0 -5 -8
-10 -17 -10 -15 0 -16 2 -3 10 19 12 20 12 20 0z m-41 -14 c-15 -13 -69 -35
-69 -27 0 5 12 14 28 19 28 11 48 15 41 8z m691 -6 c8 -5 11 -12 7 -17 -5 -4
-11 -3 -15 3 -4 6 -14 14 -22 17 -13 5 -13 5 0 6 8 0 22 -3 30 -9z m175 -100
c122 -83 289 -281 272 -323 -4 -8 -6 -6 -6 4 -2 34 -186 257 -225 272 -9 4
-16 11 -16 17 0 5 -5 10 -10 10 -10 0 -67 37 -80 51 -3 3 -22 13 -42 22 -20
10 -40 22 -44 28 -10 16 73 -28 151 -81z m-945 73 c0 -5 -14 -16 -30 -25 -38
-21 -40 -9 -2 14 31 20 32 20 32 11z m-78 -50 c-7 -3 -26 -16 -42 -30 -21 -17
-30 -20 -30 -11 0 15 71 59 80 50 3 -3 -1 -7 -8 -9z m-143 -116 c-85 -84 -129
-134 -123 -140 3 -3 1 -8 -5 -12 -23 -13 -10 24 18 54 16 17 28 31 26 31 -2 0
17 19 41 43 25 23 56 54 71 70 14 15 29 25 31 22 3 -3 -23 -34 -59 -68z m-149
-176 c0 -5 -6 -16 -14 -24 -16 -16 -61 -108 -58 -119 1 -5 -3 -8 -9 -8 -6 0
-9 -6 -6 -13 3 -7 -2 -29 -11 -48 -8 -18 -16 -37 -16 -41 -2 -15 -16 -20 -16
-5 0 9 4 18 9 21 5 3 12 23 16 43 12 69 105 240 105 194z m1634 -120 c13 -27
18 -47 12 -45 -10 4 -46 74 -46 89 0 16 13 -1 34 -44z m38 -113 c2 -15 7 -30
11 -34 4 -4 7 -17 6 -28 0 -17 -3 -15 -14 10 -8 17 -15 42 -17 55 -2 13 -7 31
-12 39 -8 13 -7 13 7 0 9 -8 17 -27 19 -42z m-1801 -100 c-9 -31 -9 -31 -10
-6 -1 30 11 67 16 51 2 -6 0 -26 -6 -45z m1826 -55 c-2 -16 -4 -5 -4 22 0 28
2 40 4 28 2 -13 2 -35 0 -50z m-1840 -55 c-3 -7 -5 -2 -5 12 0 14 2 19 5 13 2
-7 2 -19 0 -25z m1853 -29 c0 -28 -15 -23 -18 7 -1 14 2 23 8 19 6 -3 10 -15
10 -26z m-1853 -11 c-3 -8 -6 -5 -6 6 -1 11 2 17 5 13 3 -3 4 -12 1 -19z
m1850 -80 c-11 -121 -37 -232 -50 -219 -7 7 -7 15 0 23 6 7 13 31 17 53 4 22
9 54 13 70 3 17 6 54 6 83 1 28 5 52 11 52 5 0 6 -27 3 -62z m-1838 -73 c1
-16 -1 -17 -9 -5 -5 8 -9 31 -9 50 l1 35 8 -30 c4 -16 8 -39 9 -50z m21 -95
c0 -5 -2 -10 -4 -10 -3 0 -8 5 -11 10 -3 6 -1 10 4 10 6 0 11 -4 11 -10z m23
-87 c-3 -7 0 -13 7 -13 7 0 10 -7 7 -15 -4 -8 -2 -17 2 -20 5 -2 33 -46 62
-96 40 -67 80 -117 149 -186 52 -51 101 -93 108 -93 6 0 12 -3 12 -8 0 -7 15
-17 77 -46 28 -14 52 -36 39 -36 -10 0 -102 53 -145 84 -89 64 -210 196 -253
277 -16 29 -33 58 -39 66 -6 7 -8 13 -4 13 5 0 0 9 -9 19 -10 11 -19 31 -20
45 0 14 -5 26 -9 26 -5 0 -5 5 -1 11 9 15 24 -9 17 -28z m1736 -9 c-5 -15 -13
-32 -17 -38 -4 -6 -7 -13 -8 -16 -3 -18 -29 -60 -37 -60 -6 0 -7 -3 -4 -6 17
-18 -198 -274 -230 -274 -7 0 -13 -4 -13 -9 0 -12 -101 -72 -114 -68 -6 2 6
12 27 21 20 10 37 22 37 26 0 5 10 12 22 16 29 9 163 144 219 219 24 33 44 62
45 65 2 13 40 87 53 103 8 9 11 17 6 17 -4 0 -2 7 5 15 18 22 21 19 9 -11z
m-439 -483 c0 -13 -111 -63 -129 -58 -13 3 -12 6 4 11 26 10 49 17 52 17 2 0
17 8 35 18 40 24 38 23 38 12z m-780 -36 c16 -19 0 -19 -26 0 -16 12 -16 14
-3 15 9 0 22 -7 29 -15z m44 -12 c8 -8 13 -9 41 -12 8 0 15 -5 15 -10 0 -12
-37 -6 -54 9 -7 5 -16 7 -19 3 -4 -3 -7 -1 -7 5 0 14 13 16 24 5z m581 -22
c-2 -5 -16 -8 -31 -8 -14 0 -21 2 -15 6 15 10 52 11 46 2z m-451 -19 c3 -5 -1
-9 -9 -9 -8 0 -15 4 -15 9 0 10 17 10 24 0z m50 -1 c3 -5 19 -7 36 -5 16 2 40
-1 52 -6 18 -7 10 -9 -37 -8 -68 1 -87 6 -79 19 7 11 21 12 28 0z m246 -6 c-7
-8 -20 -15 -29 -15 -11 1 -8 5 9 15 32 18 35 18 20 0z m70 8 c0 -5 -12 -9 -27
-10 -19 -1 -22 1 -12 8 17 11 39 12 39 2z m-142 -20 c-10 -2 -28 -2 -40 0 -13
2 -5 4 17 4 22 1 32 -1 23 -4z"/>
<path d="M973 1415 c0 -27 2 -40 4 -27 5 25 43 32 43 8 0 -8 5 -18 10 -21 6
-4 10 12 10 39 0 27 -5 46 -11 46 -6 0 -9 -9 -6 -20 4 -16 0 -20 -18 -20 -17
0 -25 7 -28 23 -2 12 -4 0 -4 -28z"/>
<path d="M1065 1420 c-10 -22 -15 -43 -12 -47 4 -3 7 -1 7 5 0 16 43 15 58 0
7 -7 12 -9 12 -5 0 9 -39 87 -44 87 -1 0 -11 -18 -21 -40z m29 5 c3 -9 0 -15
-9 -15 -9 0 -12 6 -9 15 4 8 7 15 9 15 2 0 5 -7 9 -15z"/>
<path d="M1141 1415 l1 -50 8 40 c5 22 4 44 -1 50 -5 5 -9 -11 -8 -40z"/>
<path d="M1192 1430 c4 -28 4 -29 -14 -13 -10 9 -18 12 -18 6 0 -11 32 -43 43
-43 4 0 7 18 7 40 0 23 -5 40 -11 40 -7 0 -10 -12 -7 -30z"/>
<path d="M1230 1415 c0 -48 11 -56 51 -35 40 22 14 80 -35 80 -12 0 -16 -11
-16 -45z m55 0 c0 -13 -8 -21 -22 -23 -19 -3 -23 1 -23 23 0 22 4 26 23 23 14
-2 22 -10 22 -23z"/>
<path d="M1318 1420 c-2 -23 0 -44 4 -46 4 -3 8 7 8 23 l1 28 13 -25 14 -25
14 30 13 29 6 -34 c6 -33 6 -32 8 13 0 26 -1 47 -4 47 -3 0 -14 -15 -25 -32
-11 -18 -20 -26 -20 -18 0 8 -7 23 -14 33 -12 16 -14 14 -18 -23z"/>
<path d="M1432 1433 c-23 -65 -24 -69 -14 -54 14 20 50 21 57 3 3 -8 8 -12 11
-9 5 5 -33 87 -40 87 -2 0 -9 -12 -14 -27z m28 -13 c0 -5 -4 -10 -10 -10 -5 0
-10 5 -10 10 0 6 5 10 10 10 6 0 10 -4 10 -10z"/>
<path d="M1500 1415 c0 -38 3 -45 20 -45 31 0 63 36 51 59 -11 19 -32 31 -57
31 -10 0 -14 -13 -14 -45z m55 0 c0 -13 -8 -21 -22 -23 -19 -3 -23 1 -23 23 0
22 4 26 23 23 14 -2 22 -10 22 -23z"/>
<path d="M1590 1415 c0 -43 1 -45 30 -45 17 0 30 5 30 10 0 6 -11 10 -25 10
-31 0 -33 17 -2 23 l22 4 -22 2 c-28 1 -31 21 -3 21 11 0 20 5 20 10 0 6 -11
10 -25 10 -23 0 -25 -4 -25 -45z"/>
<path d="M1692 1418 c2 -35 7 -44 24 -46 30 -4 45 18 35 54 -5 22 -14 30 -35
32 -26 3 -27 2 -24 -40z m48 12 c0 -5 -9 -10 -20 -10 -11 0 -20 5 -20 10 0 6
9 10 20 10 11 0 20 -4 20 -10z m5 -30 c4 -6 -5 -10 -19 -10 -14 0 -26 5 -26
10 0 6 9 10 19 10 11 0 23 -4 26 -10z"/>
<path d="M1771 1441 c6 -14 15 -36 20 -50 5 -17 8 -20 8 -8 1 10 8 29 17 43 9
13 14 27 11 30 -3 3 -11 -4 -17 -16 l-11 -21 -20 23 -20 23 12 -24z"/>
<path d="M1561 1277 c-27 -45 -78 -173 -91 -232 -8 -38 -8 -55 1 -72 17 -32
29 -29 29 6 0 51 48 185 89 248 l39 61 -23 10 c-21 10 -26 7 -44 -21z"/>
<path d="M1636 1234 c-9 -23 -7 -64 2 -64 5 0 19 12 31 26 21 25 22 26 4 40
-24 18 -30 17 -37 -2z"/>
<path d="M1705 1160 c-14 -16 -16 -29 -11 -70 6 -44 5 -50 -12 -50 -43 0 -83
-80 -46 -94 45 -17 84 10 84 58 0 18 7 29 23 36 l22 9 -23 0 c-21 1 -23 4 -17
34 4 17 9 35 12 40 9 14 22 7 25 -15 l3 -23 14 23 c11 21 10 27 -10 48 -27 29
-40 30 -64 4z m30 -20 c-3 -5 -11 -10 -16 -10 -6 0 -7 5 -4 10 3 6 11 10 16
10 6 0 7 -4 4 -10z m-49 -155 c-17 -26 -36 -33 -36 -13 0 17 44 61 48 48 2 -6
-3 -22 -12 -35z"/>
<path d="M1254 1144 c-7 -26 -83 -149 -88 -143 -2 2 -1 37 3 77 l7 73 -26 -3
c-24 -3 -25 -7 -28 -68 -1 -36 -3 -76 -5 -89 -3 -38 16 -35 66 9 69 61 121
153 92 164 -10 3 -17 -3 -21 -20z"/>
<path d="M961 1125 c-39 -45 -58 -104 -42 -134 17 -30 35 -26 69 15 l30 36 -1
-33 c-2 -24 3 -34 16 -37 13 -3 17 3 17 31 0 19 7 54 15 78 10 28 12 46 5 53
-12 12 -8 16 -53 -60 -20 -34 -44 -67 -52 -74 -13 -10 -15 -9 -15 11 0 31 32
84 65 105 20 13 23 19 14 30 -18 22 -35 17 -68 -21z"/>
<path d="M1321 1125 c-39 -45 -58 -104 -42 -134 17 -30 35 -26 69 15 l30 36
-1 -33 c-2 -28 2 -35 20 -37 20 -3 21 0 17 30 -3 18 2 53 11 77 11 33 13 47 4
55 -8 8 -13 8 -16 -1 -10 -28 -83 -133 -93 -133 -30 0 10 87 55 116 20 13 23
19 14 30 -18 22 -35 17 -68 -21z"/>
<path d="M1842 1144 c-27 -19 -62 -85 -62 -118 0 -30 42 -66 69 -59 10 3 32
18 47 34 31 32 22 40 -10 10 -32 -29 -60 -31 -64 -3 -2 13 2 22 10 22 23 0 85
58 90 84 9 45 -36 61 -80 30z m58 -23 c0 -14 -40 -60 -62 -72 -18 -10 -19 -9
-8 13 24 45 70 85 70 59z"/>
<path d="M1585 1116 c-19 -28 -25 -137 -9 -143 6 -2 14 11 18 29 3 18 16 52
27 75 11 23 18 47 14 53 -11 17 -34 11 -50 -14z"/>
<path d="M1516 888 c-9 -12 -16 -38 -16 -57 0 -32 1 -34 16 -20 13 14 30 99
19 99 -2 0 -11 -10 -19 -22z"/>
<path d="M1426 838 c25 -42 74 -74 74 -49 0 18 -43 61 -61 61 -13 0 -18 -4
-13 -12z"/>
<path d="M1407 778 c11 -19 29 -34 42 -36 17 -3 22 -9 18 -22 -4 -16 -1 -17
19 -10 13 5 31 7 41 3 11 -4 14 -3 9 5 -4 7 -2 10 7 6 8 -3 20 2 27 11 9 11 9
15 1 15 -7 0 -10 4 -6 9 3 6 -2 14 -11 19 -18 10 -74 -6 -74 -21 0 -5 -16 5
-35 22 -46 40 -62 40 -38 -1z m138 -28 c3 -4 -11 -10 -30 -12 -33 -4 -43 1
-30 14 9 8 55 7 60 -2z"/>
<path d="M1370 751 c0 -14 62 -71 77 -71 8 0 12 -4 9 -9 -8 -13 29 -20 48 -9
10 6 20 7 23 5 4 -5 -69 -47 -82 -47 -3 0 -5 8 -5 18 0 19 -66 60 -78 48 -4
-5 11 -24 33 -43 22 -19 39 -42 38 -51 -1 -10 0 -12 3 -4 3 6 21 12 40 12 26
0 39 7 56 30 36 50 33 60 -20 56 -41 -3 -49 0 -86 35 -40 39 -56 47 -56 30z"/>
<path d="M1286 678 c-9 -12 -16 -28 -16 -36 0 -8 -7 -6 -22 8 -12 11 -26 20
-30 20 -14 0 21 -59 42 -70 11 -6 20 -18 20 -27 0 -15 2 -16 15 -2 19 19 37
79 24 79 -5 0 -15 -11 -21 -25 -6 -14 -15 -25 -20 -25 -11 0 -10 14 2 26 10
10 32 74 25 74 -2 0 -11 -10 -19 -22z"/>
<path d="M1626 641 c-4 -6 -3 -18 2 -27 8 -14 10 -14 15 -2 7 19 -8 44 -17 29z"/>
<path d="M1340 631 c0 -19 52 -71 71 -71 24 0 24 11 1 38 -21 23 -72 47 -72
33z"/>
<path d="M1200 605 c0 -18 22 -45 32 -39 6 4 8 3 5 -3 -8 -13 17 -36 27 -26 4
4 11 1 16 -7 8 -13 10 -12 10 2 0 9 -15 28 -32 41 -42 31 -58 40 -58 32z"/>
<path d="M1321 577 c-7 -10 -10 -17 -5 -17 5 0 4 -4 -3 -8 -6 -4 -15 -20 -18
-35 -6 -22 -4 -26 9 -21 9 3 16 12 16 20 0 8 5 14 10 14 15 0 12 -11 -9 -43
-10 -16 -17 -37 -14 -47 3 -10 -2 -20 -12 -24 -9 -3 -14 -2 -11 3 8 12 -32 21
-55 12 -18 -6 -17 -9 12 -30 20 -15 40 -21 55 -18 17 3 29 -2 38 -15 14 -19
48 -15 45 6 -3 24 2 33 16 33 19 0 19 -18 0 -43 -8 -10 -15 -29 -15 -42 0 -14
-4 -21 -11 -16 -8 4 -8 0 0 -15 10 -17 9 -20 -4 -14 -18 6 -95 -25 -95 -39 0
-15 87 -9 100 7 12 14 17 11 43 -20 l30 -37 23 46 c13 25 21 54 19 64 -2 10 5
24 16 30 15 10 19 9 19 -1 0 -8 6 -14 13 -14 8 0 14 6 14 14 0 7 -7 13 -15 13
-9 0 -12 6 -8 16 3 9 6 18 6 20 0 2 9 4 19 4 15 0 18 5 13 22 -4 15 -2 19 8
13 8 -5 11 -3 8 6 -3 8 5 34 18 59 13 25 24 51 24 58 0 8 10 22 23 32 l22 19
-22 -2 c-13 -1 -23 -7 -23 -13 0 -7 -5 -14 -11 -16 -5 -2 -12 -16 -13 -32 -2
-15 -9 -32 -16 -36 -6 -4 -10 -9 -8 -11 5 -7 -34 -89 -44 -89 -4 0 -8 5 -8 11
0 5 -5 7 -10 4 -8 -5 -7 -11 1 -21 9 -11 8 -19 -6 -34 -10 -11 -25 -20 -33
-20 -8 0 -12 -6 -9 -13 3 -7 -1 -26 -8 -42 l-12 -30 -7 47 c-4 26 -4 64 0 84
5 26 4 35 -5 30 -10 -6 -16 24 -12 60 1 6 -14 10 -33 10 -24 -1 -36 -6 -40
-18 -6 -26 13 -33 30 -12 14 18 14 18 4 -3 -6 -13 -15 -23 -20 -23 -5 0 -10
-9 -12 -20 -3 -21 -3 -21 -19 -2 -15 18 -15 22 2 57 11 21 19 47 19 56 0 10 5
21 10 24 6 4 10 -5 10 -19 0 -21 5 -26 25 -26 14 0 25 4 25 9 0 18 -42 61 -60
61 -10 0 -20 7 -22 17 -3 15 -4 15 -17 0z m105 -335 c-4 -4 -17 4 -28 18 -19
23 -19 25 -1 38 16 12 19 10 27 -18 5 -17 6 -34 2 -38z m45 25 c-10 -9 -11 -8
-5 6 3 10 9 15 12 12 3 -3 0 -11 -7 -18z"/>
<path d="M1463 580 c-25 -10 -47 -45 -39 -63 2 -7 5 -5 5 4 1 11 8 15 24 12
30 -6 105 42 81 51 -21 8 -44 7 -71 -4z"/>
<path d="M1214 502 c10 -12 23 -19 27 -16 5 3 9 -2 9 -10 0 -9 8 -16 19 -16
51 0 19 45 -40 56 l-34 7 19 -21z"/>
<path d="M1436 497 c-16 -12 -16 -14 -2 -26 13 -11 22 -11 46 -1 16 7 35 18
41 26 9 12 5 14 -28 14 -21 0 -47 -6 -57 -13z"/>
<path d="M1267 330 c-23 -14 -25 -19 -12 -24 28 -10 70 -7 90 7 37 28 -36 44
-78 17z"/>
</g>
</svg>
